<svg id="id" fill="#231f20" viewBox="0 0 1112 162" xmlns="http://www.w3.org/2000/svg"><path d="M1 115h97v9H67.917L68 152h112V49l-57.5-37L69 47v30h29v9H1v-9h59V42l62.5-41L184 41l61.5-40L309 42v35h60v9h-97v-9h28V48l-54.5-36L188 49v103h112v-28h-28l-1-9h98v9h-60v37H59l-.048-37H1z" fill="#e60020"/><path d="M417.09 125.57v4.588l3.258.462-.027 1.384h-9.394l-.163-.868q.842-.516 2.2-1.086v-14.28l-2.01-.245.028-1.384 8.769-.218q3.149 0 5.077 1.684 1.954 1.656 1.954 4.208 0 2.416-1.846 4.045t-4.751 1.683zm0-9.122v6.706q1.086.217 2.09.217 1.657 0 2.498-1.032.842-1.059.842-2.579 0-1.167-.435-2.226-.434-1.059-1.221-1.493zm30.428 10.154q.054 2.66-.326 5.402h-14.199l-.163-.868q.788-.516 2.308-1.113V115.77l-2.009-.245.027-1.384h14.172q.136 2.226-.434 5.158h-2.28l-.462-2.688-4.887-.353v5.837l5.837-.461v2.742l-5.837-.245v5.62l5.077-.353.896-2.959zm25.65 4.018l-.027 1.384h-5.43l-3.692-6.923-2.254.028v5.158l2.444.353-.028 1.385h-8.687l-.163-.87q.787-.515 2.308-1.112V115.77l-2.01-.245.028-1.384 8.66-.217q3.122 0 5.104 1.574 2.01 1.575 2.01 3.937 0 1.602-.978 2.986-.977 1.358-2.66 2.063l3.637 5.919zm-11.403-7.792q.923.19 1.765.19 1.927 0 2.769-.977.869-.978.869-2.525 0-2.39-1.63-3.475l-3.773.407zm32.03 4.262q0 2.417-1.928 3.937-1.9 1.52-4.805 1.52-1.575 0-3.42-.488-1.847-.462-3.042-1.25l-.027-.76q0-2.253.435-4.289h1.954l1.33 3.801q1.711.787 3.91.787 1.493-.705 1.493-2.28 0-1.439-1.764-2.416l-4.073-2.064q-3.23-1.846-3.23-4.642 0-2.362 1.954-3.855 1.955-1.494 5.023-1.494 2.715 0 5.375.978 0 2.878-.461 4.968h-2.172l-.787-3.04q-1.575-.815-3.774-.76-1.249.786-1.249 2.198 0 .815.706 1.493.733.652 2.932 1.657 2.226 1.004 3.258 1.737 1.059.706 1.71 1.765.652 1.031.652 2.497zm16.311-13.493q3.882 0 6.38 2.715 2.498 2.688 2.498 7.005 0 4.154-2.444 6.706-2.416 2.524-6.217 2.524-3.91 0-6.407-2.579-2.498-2.579-2.498-6.787 0-4.235 2.444-6.896 2.47-2.687 6.244-2.687zm-2.335 2.77q-.896.76-1.466 2.47-.543 1.71-.543 3.855 0 3.285 1.303 5.376 1.304 2.09 3.72 2.09.624 0 1.547-.244 1.032-.814 1.656-2.579.625-1.765.625-3.937 0-3.285-1.33-5.348-1.33-2.063-3.53-2.063-.923 0-1.982.38zm37.623-1.358q-.841.516-2.199 1.086l-.109 15.91-3.828.352-8.579-13.167.408 3.34v7.737l2.389.353-.027 1.385h-7.466l-.163-.87q.787-.515 2.307-1.112v-14.2l-1.9-.298.027-1.385h6.027l-.027.028 8.389 13.113-.407-3.448v-7.928l-2.634-.38.028-1.384h7.601zm25.38 15.611l-.028 1.385h-8.552l-.163-.869q.76-.461 2.362-1.14l-1.14-2.932h-6.462l-1.194 3.203 2.498.353-.028 1.385h-7.384l-.163-.869q.814-.516 2.253-1.086l6-14.742-.325-.842 3.556-.977 6.842 16.86zm-8.308-5.62l-2.444-6.407L557.58 125zm29.044 1.738q0 3.258-.353 5.267h-14.77l-.162-.869q.787-.516 2.307-1.113v-14.199l-2.09-.299.027-1.384h8.308l.163.869q-1.005.597-2.28 1.113v13.602l5.429-.435 1.059-3.746 2.362.217zm37.427 3.882l-.028 1.385h-5.43l-3.692-6.923-2.253.027v5.158l2.443.353-.027 1.385h-8.688l-.162-.869q.787-.516 2.307-1.113V115.77l-2.009-.244.027-1.385 8.66-.217q3.123 0 5.105 1.575 2.009 1.574 2.009 3.936 0 1.602-.977 2.987-.978 1.357-2.661 2.063l3.638 5.918zm-11.403-7.792q.923.19 1.764.19 1.928 0 2.77-.977.868-.977.868-2.525 0-2.389-1.629-3.475l-3.773.407zm32.519 3.774q.054 2.66-.326 5.403h-14.2l-.162-.869q.787-.516 2.308-1.113V115.77l-2.01-.244.028-1.385h14.172q.136 2.226-.435 5.158h-2.28l-.462-2.688-4.886-.352v5.837l5.837-.462v2.742l-5.837-.244v5.62l5.076-.353.896-2.96zm26.275 4.018l-.028 1.385h-8.551l-.163-.869q.76-.462 2.362-1.14l-1.14-2.932h-6.462l-1.195 3.203 2.498.353-.027 1.385h-7.385l-.163-.869q.815-.516 2.254-1.086l6-14.742-.326-.842 3.556-.977 6.842 16.86zM668.02 125l-2.443-6.407-2.444 6.407zm29.044 1.738q0 3.258-.353 5.267h-14.769l-.163-.869q.788-.516 2.308-1.113v-14.2l-2.09-.298.027-1.384h8.307l.163.868q-1.004.598-2.28 1.114v13.602l5.43-.435 1.058-3.746 2.362.217zm34.278-.136q.054 2.66-.326 5.403h-14.199l-.163-.869q.788-.516 2.308-1.113V115.77l-2.009-.244.027-1.385h14.172q.136 2.226-.434 5.158h-2.28l-.462-2.688-4.887-.352v5.837l5.837-.462v2.742l-5.837-.244v5.62l5.077-.353.896-2.96zm21.741.489q0 2.416-1.928 3.936-1.9 1.52-4.805 1.52-1.575 0-3.42-.488-1.847-.461-3.041-1.249l-.028-.76q0-2.253.435-4.29h1.954l1.33 3.801q1.711.788 3.91.788 1.493-.706 1.493-2.28 0-1.44-1.764-2.417l-4.073-2.063q-3.23-1.846-3.23-4.643 0-2.362 1.954-3.855 1.955-1.493 5.023-1.493 2.715 0 5.375.977 0 2.878-.461 4.968h-2.172l-.787-3.04q-1.575-.815-3.774-.76-1.249.787-1.249 2.199 0 .814.706 1.493.733.651 2.932 1.656 2.226 1.004 3.258 1.737 1.059.706 1.71 1.765.652 1.032.652 2.498zm24.076-13.113l.027.787q0 2.797-.461 4.941h-2.172l-.408-3.42-3.42-.272v14.199l2.769.407-.027 1.385h-9.475l-.163-.869q.597-.38 2.769-1.222v-13.9l-3.448.272-.407 3.42h-2.172q-.462-2.144-.462-4.94l.028-.788 8.551.109zm24.347 16.642l-.027 1.384h-8.552l-.163-.868q.76-.462 2.362-1.14l-1.14-2.933h-6.462l-1.194 3.204 2.497.353-.027 1.384h-7.384l-.163-.868q.814-.516 2.253-1.086l6-14.742-.326-.842 3.557-.977 6.841 16.86zm-8.308-5.62l-2.443-6.407-2.443 6.407zm29.234-11.022l.028.787q0 2.797-.462 4.941h-2.172l-.407-3.42-3.42-.272v14.2l2.768.406-.027 1.385h-9.475l-.163-.869q.598-.38 2.77-1.221v-13.9l-3.448.271-.408 3.42h-2.172q-.461-2.144-.461-4.94l.027-.788 8.552.109zm21.116 12.624q.055 2.66-.325 5.403h-14.2l-.162-.87q.787-.515 2.307-1.112V115.77l-2.009-.245.028-1.384h14.172q.135 2.226-.435 5.158h-2.28l-.462-2.688-4.887-.353v5.837l5.837-.461v2.742l-5.837-.244v5.62l5.077-.354.896-2.959zm35.527 3.448l-5.565 2.389q-3.34.109-5.511-1.195-2.145-1.303-3.123-3.393-.977-2.118-.977-4.561 0-2.498 1.032-4.724t3.095-3.584q2.063-1.384 4.995-1.384 3.15 0 5.593 1.71.054.869-.109 2.335t-.488 2.552h-2.498l-.652-3.394q-1.873-.814-4.1-.814-1.33 1.004-2.008 2.823-.652 1.82-.652 3.828 0 3.231 1.575 5.131t4.262 1.82l4.48-1.467zm14.601-16.452q3.883 0 6.38 2.715 2.498 2.688 2.498 7.004 0 4.154-2.443 6.706-2.417 2.525-6.217 2.525-3.91 0-6.408-2.58-2.497-2.578-2.497-6.786 0-4.236 2.443-6.896 2.47-2.688 6.244-2.688zm-2.334 2.77q-.896.76-1.466 2.47-.543 1.71-.543 3.855 0 3.285 1.303 5.375t3.72 2.09q.624 0 1.547-.243 1.031-.815 1.656-2.58.624-1.764.624-3.936 0-3.285-1.33-5.349-1.33-2.063-3.53-2.063-.923 0-1.981.38zm35.885 14.252l-.028 1.385h-5.43l-3.692-6.923-2.253.027v5.158l2.443.353-.027 1.385h-8.687l-.163-.869q.787-.516 2.307-1.113V115.77l-2.009-.244.028-1.385 8.66-.217q3.122 0 5.104 1.574 2.009 1.575 2.009 3.937 0 1.602-.977 2.986-.978 1.358-2.66 2.064l3.637 5.918zm-11.403-7.792q.923.19 1.764.19 1.928 0 2.77-.977.868-.977.868-2.525 0-2.389-1.629-3.475l-3.773.407zm24.184 2.742v4.589l3.257.461-.027 1.385h-9.393l-.163-.87q.841-.515 2.199-1.085v-14.28l-2.01-.244.028-1.385 8.77-.217q3.149 0 5.076 1.683 1.955 1.656 1.955 4.208 0 2.416-1.846 4.045-1.846 1.63-4.751 1.683zm0-9.122v6.706q1.086.217 2.09.217 1.656 0 2.498-1.031.841-1.06.841-2.58 0-1.167-.434-2.226t-1.222-1.493zm25.053-2.85q3.882 0 6.38 2.715 2.497 2.687 2.497 7.004 0 4.154-2.443 6.706-2.416 2.525-6.217 2.525-3.91 0-6.407-2.58-2.498-2.579-2.498-6.787 0-4.235 2.443-6.896 2.47-2.687 6.245-2.687zm-2.335 2.769q-.896.76-1.466 2.47-.543 1.71-.543 3.856 0 3.285 1.303 5.375t3.72 2.09q.624 0 1.547-.244 1.032-.814 1.656-2.579.624-1.765.624-3.937 0-3.285-1.33-5.348-1.33-2.063-3.53-2.063-.922 0-1.981.38zm35.885 14.253l-.027 1.384h-5.43l-3.692-6.923-2.254.028v5.158l2.443.353-.027 1.384h-8.687l-.163-.868q.787-.516 2.307-1.113V115.77l-2.009-.245.028-1.384 8.66-.218q3.122 0 5.104 1.575 2.01 1.575 2.01 3.937 0 1.601-.978 2.986-.978 1.357-2.66 2.063l3.637 5.919zm-11.403-7.792q.923.19 1.765.19 1.927 0 2.769-.977.868-.978.868-2.525 0-2.39-1.628-3.475l-3.774.407zm37.107 7.792l-.027 1.384h-8.552l-.163-.868q.76-.462 2.362-1.14l-1.14-2.933h-6.462l-1.194 3.204 2.497.353-.027 1.384h-7.384l-.163-.868q.814-.516 2.253-1.086l6-14.742-.326-.842 3.557-.977 6.841 16.86zm-8.308-5.62l-2.443-6.407-2.444 6.407zm29.234-11.022l.027.787q0 2.797-.461 4.941h-2.172l-.407-3.42-3.421-.272v14.2l2.769.406-.027 1.385h-9.475l-.163-.869q.597-.38 2.77-1.221v-13.9l-3.449.271-.407 3.42h-2.172q-.461-2.144-.461-4.94l.027-.788 8.552.109zm15.361 16.642l-.027 1.385h-8.742l-.163-.87q.788-.515 2.308-1.112v-14.2l-2.09-.298.027-1.384h8.307l.163.868q-1.005.598-2.28 1.113v14.145zm15.28-17.022q3.882 0 6.38 2.715 2.497 2.688 2.497 7.004 0 4.154-2.443 6.706-2.417 2.525-6.218 2.525-3.909 0-6.407-2.58-2.497-2.578-2.497-6.786 0-4.236 2.443-6.896 2.47-2.688 6.244-2.688zm-2.336 2.77q-.895.76-1.466 2.47-.543 1.71-.543 3.855 0 3.285 1.304 5.376 1.303 2.09 3.719 2.09.624 0 1.548-.244 1.031-.815 1.656-2.58.624-1.764.624-3.936 0-3.285-1.33-5.349-1.33-2.063-3.53-2.063-.923 0-1.982.38zm37.623-1.358q-.841.516-2.199 1.086l-.108 15.909-3.828.353-8.58-13.167.408 3.34v7.737l2.389.353-.027 1.384h-7.466l-.163-.869q.787-.515 2.308-1.113v-14.199l-1.9-.298.026-1.385h6.027l-.027.027 8.39 13.113-.408-3.448v-7.927l-2.633-.38.027-1.385h7.602zM481.59 91.785l-.1 5.215h-20.146l-20.447-28.683-4.11 4.312v18.052l8.42 1.204-.1 5.115h-31.472l-.602-3.21q2.907-1.905 8.52-4.111V37.227l-7.818-1.104.1-5.114h30.771l.602 3.209q-3.709 2.206-8.42 4.112v22.465l22.151-23.668-6.615-1.003.1-5.115h24.858l.6 3.21q-2.104 1.403-8.318 3.71L450.82 57.786l24.556 32.995zm57.277.1l-.1 5.115h-32.274l-.601-3.21q2.906-1.905 8.52-4.111V37.227l-7.718-1.103.1-5.115h30.67l.601 3.209q-3.708 2.206-8.42 4.112v52.25zm84.24-61.478l.1 2.909q0 10.33-1.704 18.253h-8.019l-1.503-12.637-12.63-1.003V90.38l10.224 1.504-.1 5.115h-34.98l-.602-3.21q2.205-1.404 10.223-4.513V37.928l-12.729 1.003-1.503 12.637h-8.018q-1.704-7.923-1.704-18.253l.1-2.908 31.572.401zm85.441 0l.1 2.909q0 10.33-1.703 18.253h-8.019l-1.503-12.637-12.63-1.003V90.38l10.224 1.504-.1 5.115h-34.98l-.602-3.21q2.205-1.404 10.223-4.513V37.928l-12.729 1.003-1.503 12.637h-8.018q-1.704-7.923-1.704-18.253l.1-2.908 31.572.401zm61.487 60.274l8.32 1.204-.1 5.114h-30.57l-.602-3.209q3.107-1.905 8.118-4.011V72.228l-18.843-35.202-6.314-.903.1-5.115h26.761l.602 3.21-5.613 2.908 9.421 17.75 2.707 8.526h.6l13.13-26.176-7.416-1.104.1-5.114h24.456l.601 3.209q-2.606 1.604-7.918 3.911l-17.54 32.494zm150.34-.902l-20.547 8.825q-12.328.401-20.347-4.413-7.918-4.814-11.526-12.536-3.608-7.822-3.608-16.849 0-9.226 3.809-17.45 3.809-8.224 11.426-13.238 7.617-5.115 18.442-5.115 11.627 0 20.647 6.319.2 3.209-.401 8.625-.601 5.415-1.804 9.427h-9.221l-2.406-12.536q-6.916-3.009-15.135-3.009-4.911 3.71-7.417 10.43-2.405 6.72-2.405 14.141 0 11.935 5.813 18.955 5.813 7.02 15.736 6.72l16.538-5.416zm99.875 2.106l-.1 5.114h-32.374l-.601-3.209q2.907-1.905 8.52-4.112v-21.16H968.73V90.58l9.222 1.304-.1 5.115h-32.275l-.601-3.21q2.907-1.905 8.52-4.111V37.227l-7.718-1.104.1-5.114h30.67l.602 3.209q-3.709 2.206-8.42 4.112v21.562h26.962V37.226l-7.717-1.103.1-5.115h30.77l.602 3.21q-3.207 2.005-8.52 4.111V90.58zm55.874-62.882q14.333 0 23.554 10.029 9.222 9.928 9.222 25.875 0 15.344-9.021 24.772-8.92 9.327-22.953 9.327-14.433 0-23.654-9.528t-9.221-25.073q0-15.645 9.02-25.474 9.121-9.929 23.053-9.929zm-8.62 10.23q-3.307 2.808-5.412 9.126-2.004 6.318-2.004 14.241 0 12.135 4.81 19.857 4.812 7.722 13.733 7.722 2.305 0 5.713-.902 3.809-3.009 6.114-9.528t2.305-14.542q0-12.135-4.911-19.757-4.911-7.622-13.03-7.622-3.408 0-7.317 1.404z"/></svg>