<?xml version="1.0" encoding="UTF-8"?>
<!-- Created with Inkscape (http://www.inkscape.org/) -->
<svg id="id" version="1.1" viewBox="0 0 1112 162" xml:space="preserve" xmlns="http://www.w3.org/2000/svg" fill="white"><g><path d="m1 115h97v9h-30.083l0.08339 28h112v-103l-57.5-37-53.5 35v30h29v9h-97v-9h59v-35l62.5-41 61.5 40 61.5-40 63.5 41v35h60v9h-97v-9h28v-29l-54.5-36-57.5 37v103h112v-28h-28l-1-9h98v9h-60v37h-250l-0.0481-37h-57.952z" fill="#f2c64a"/><text transform="scale(.9997 1.0003)" x="410.54977" y="96.965614" font-family="'Mirantz W05 t'" font-size="100.26px" letter-spacing="20.8px" stroke-width="8.3548" xml:space="preserve"><tspan x="410.54977" y="96.965614" font-family="Eczar" font-weight="600" letter-spacing="20.8px" stroke-width="8.3548">KITTY CHO</tspan></text><text x="410.03348" y="132" font-family="Eczar" font-size="27.149px" font-weight="600" letter-spacing="5.75px" stroke-width="1.0181" xml:space="preserve"><tspan x="410.03348" y="132" letter-spacing="5.75px" stroke-width="1.0181">PERSONAL REAL ESTATE CORPORATION</tspan></text></g></svg>
