<svg xmlns="http://www.w3.org/2000/svg" version="1.1" xmlns:xlink="http://www.w3.org/1999/xlink" xmlns:svgjs="http://svgjs.com/svgjs" width="274.000000pt" height="274.000000pt"><svg version="1.0" xmlns="http://www.w3.org/2000/svg" width="274.000000pt" height="274.000000pt" viewBox="0 0 274.000000 274.000000" preserveAspectRatio="xMidYMid meet">

<g transform="translate(0.000000,274.000000) scale(0.100000,-0.100000)" fill="#000000" stroke="none">
<path d="M770 2375 c-80 -52 -169 -109 -199 -126 -30 -18 -69 -45 -87 -62
l-34 -29 0 -103 0 -104 -190 -3 c-119 -2 -193 -7 -200 -14 -17 -17 -23 -76
-11 -106 l11 -28 358 0 c265 0 361 3 370 12 7 7 12 36 12 65 0 48 -3 54 -26
63 -14 6 -59 10 -100 10 l-74 0 0 68 0 68 71 45 c38 24 90 59 114 77 24 17 47
32 50 32 4 0 26 14 50 30 24 17 46 30 50 30 3 0 45 -25 93 -57 184 -119 218
-141 240 -152 l22 -12 0 -329 0 -330 -350 0 -350 0 0 55 0 55 79 0 c44 0 91 4
105 10 23 9 26 15 26 63 0 29 -5 58 -12 65 -9 9 -104 12 -365 12 l-353 0 -16
-25 c-18 -27 -14 -89 6 -109 7 -7 81 -12 200 -14 l190 -3 0 -120 0 -119 26
-10 c17 -7 340 -9 900 -8 699 2 876 6 886 16 9 9 14 51 16 127 l4 114 193 3
c122 2 198 7 205 14 20 20 24 82 6 109 l-16 25 -353 0 c-261 0 -356 -3 -365
-12 -7 -7 -12 -36 -12 -65 0 -48 3 -54 26 -63 14 -6 57 -10 95 -10 l69 0 0
-55 0 -55 -345 0 -345 0 0 329 0 328 68 43 c37 24 103 66 147 95 129 84 141
90 156 76 8 -6 41 -28 74 -49 33 -21 92 -60 131 -85 39 -26 78 -49 87 -53 14
-5 17 -20 17 -80 l0 -74 -64 0 c-36 0 -76 -4 -90 -10 -23 -9 -26 -15 -26 -63
0 -29 5 -58 12 -65 9 -9 105 -12 370 -12 l358 0 11 28 c12 30 6 89 -11 106 -7
7 -84 12 -210 14 l-200 3 0 110 0 109 -37 26 c-21 14 -94 62 -163 106 -69 45
-154 101 -191 125 -36 23 -74 43 -85 43 -16 0 -151 -76 -189 -107 -15 -12
-197 -128 -223 -142 -20 -11 -37 -2 -178 89 -85 55 -157 100 -160 100 -2 0
-23 14 -46 30 -22 17 -50 30 -62 30 -12 0 -86 -43 -166 -95z"></path>
<path d="M250 1044 c-25 -9 -50 -22 -56 -30 -6 -8 -15 -14 -20 -14 -14 0 -94
-83 -94 -97 0 -8 -7 -16 -15 -19 -8 -4 -25 -38 -36 -76 -18 -58 -21 -87 -17
-171 5 -98 28 -187 49 -187 5 0 9 -6 9 -14 0 -18 95 -106 115 -106 8 0 15 -4
15 -10 0 -15 99 -40 161 -40 57 0 120 20 146 46 8 8 21 14 28 14 12 0 78 26
94 37 2 2 -2 21 -9 43 -11 34 -17 39 -34 34 -12 -4 -23 -10 -26 -13 -10 -13
-119 -41 -161 -41 -97 0 -176 66 -200 166 -16 73 -11 208 12 277 29 90 57 117
117 116 26 0 67 -6 92 -12 l44 -12 11 -60 c6 -33 14 -66 18 -72 9 -15 93 -18
102 -3 3 5 10 48 16 96 l11 87 -28 23 c-39 34 -85 46 -199 50 -74 3 -112 0
-145 -12z"></path>
<path d="M2233 1041 c-28 -11 -70 -36 -93 -58 -23 -21 -47 -41 -54 -45 -24
-14 -65 -123 -75 -201 -17 -145 19 -284 91 -351 68 -62 86 -74 137 -91 90 -30
266 -18 305 20 8 8 19 15 24 15 16 0 102 90 102 106 0 8 4 14 9 14 5 0 18 21
28 48 38 100 16 367 -33 386 -7 3 -14 11 -14 19 0 13 -80 97 -93 97 -4 0 -16
9 -26 19 -42 42 -217 54 -308 22z m214 -109 c94 -67 130 -291 71 -451 -32 -86
-50 -101 -122 -101 -88 0 -124 21 -161 95 -16 33 -34 63 -40 67 -14 10 -13
277 1 286 5 4 18 28 28 55 25 67 46 79 127 74 46 -3 76 -11 96 -25z"></path>
<path d="M910 1010 c0 -27 4 -30 40 -36 l40 -7 0 -291 0 -292 -45 -22 c-39
-19 -44 -24 -36 -44 8 -23 10 -23 187 -23 l179 0 3 31 c3 31 2 32 -52 38 l-56
7 0 120 0 119 145 0 145 0 0 -115 0 -115 -41 -20 c-31 -16 -40 -26 -37 -43 3
-22 6 -22 186 -25 l182 -2 0 34 c0 33 0 34 -55 41 l-55 6 0 293 0 294 55 23
c54 24 70 39 40 39 -8 0 -15 5 -15 10 0 6 -62 10 -165 10 l-165 0 0 -30 c0
-25 4 -30 35 -36 l35 -6 0 -124 0 -124 -145 0 -146 0 3 117 3 117 48 24 c48
25 59 45 31 56 -9 3 -90 6 -180 6 l-164 0 0 -30z"></path>
</g>
</svg><style>@media (prefers-color-scheme: light) { :root { filter: none; } }
</style></svg>