<svg viewBox="0 0 368 368" xmlns="http://www.w3.org/2000/svg"><path d="M90.533 317.601l-33.2 14.246q-19.922.648-32.878-7.123-12.795-7.77-18.625-20.236Q0 291.861 0 277.291q0-14.894 6.154-28.169t18.463-21.37q12.308-8.256 29.8-8.256 18.786 0 33.362 10.199.324 5.18-.648 13.922-.971 8.742-2.915 15.218h-14.9l-3.887-20.236q-11.175-4.857-24.456-4.857-7.936 5.99-11.984 16.837-3.887 10.847-3.887 22.826 0 19.265 9.393 30.598t25.427 10.846l26.723-8.742zm147.8 3.4l-.163 8.256H185.86l-.972-5.18q4.697-3.076 13.767-6.638V283.28h-43.567v35.616l14.9 2.105-.162 8.256h-52.15l-.972-5.18q4.697-3.077 13.767-6.638V232.77L118 230.99l.161-8.257h49.56l.971 5.181q-5.992 3.562-13.605 6.637v34.807h43.567v-36.587l-12.47-1.781.162-8.256h49.72l.972 5.18q-5.182 3.238-13.767 6.638v84.344zm76.702-101.509q23.16 0 38.06 16.189 14.9 16.026 14.9 41.767 0 24.769-14.577 39.987-14.413 15.055-37.088 15.055-23.322 0-38.222-15.38-14.9-15.379-14.9-40.472 0-25.254 14.576-41.12 14.738-16.027 37.25-16.027zm-13.928 16.513q-5.345 4.533-8.746 14.732-3.239 10.199-3.239 22.988 0 19.589 7.774 32.054t22.189 12.465q3.725 0 9.231-1.457 6.154-4.856 9.88-15.38 3.724-10.522 3.724-23.473 0-19.59-7.935-31.893-7.936-12.303-21.055-12.303-5.506 0-11.822 2.266zM.017 149.485h97v9H66.932l.084 28h112.002V83.487l-57.5-37-53.5 35v29.999h29v9H.02v-9h59v-35l62.5-41 61.499 40 61.5-40 63.499 41v35h60v9h-97v-9h28v-29l-54.5-36-57.5 37v103h112.003v-28.001h-28l-1-9h98v9h-60v37h-250l-.048-37H.02z"/></svg>