<?xml version="1.0" standalone="no"?>
<!DOCTYPE svg PUBLIC "-//W3C//DTD SVG 20010904//EN"
 "http://www.w3.org/TR/2001/REC-SVG-20010904/DTD/svg10.dtd">
<svg version="1.0" xmlns="http://www.w3.org/2000/svg"
 width="700.000000pt" height="700.000000pt" viewBox="0 0 700.000000 700.000000"
 preserveAspectRatio="xMidYMid meet">
<metadata>
Created by potrace 1.14, written by Peter Selinger 2001-2017
</metadata>
<g transform="translate(0.000000,700.000000) scale(0.100000,-0.100000)"
fill="#000000" stroke="none">
<path d="M2149 6219 c-85 -56 -197 -130 -249 -164 -52 -34 -189 -124 -305
-200 -115 -76 -269 -176 -341 -223 l-131 -86 0 -330 0 -331 -561 -3 -562 -2 0
-85 0 -85 28 0 c38 -1 1573 -1 1707 0 l111 0 -1 85 0 85 -276 0 -275 0 0 286
1 285 320 209 c306 200 648 424 680 445 19 12 -6 27 397 -233 86 -56 378 -244
523 -338 72 -45 135 -87 141 -91 5 -4 19 -13 30 -19 19 -11 19 -31 19 -992 l0
-980 -1050 0 c-577 0 -1057 2 -1065 4 -14 3 -16 39 -16 267 l0 262 275 0 c152
-1 281 0 286 2 7 2 11 37 10 86 l0 82 -923 1 -922 0 0 -85 0 -86 551 0 551 0
2 -350 1 -350 2377 -2 2378 -2 2 352 3 352 565 0 565 0 3 86 3 85 -931 1 -932
0 7 -81 c4 -45 9 -83 12 -86 2 -2 122 -5 266 -5 l262 0 0 -265 0 -265 -1062
-1 -1063 -2 -1 32 c0 17 -1 458 -1 980 -1 629 3 950 9 955 265 169 834 535
1022 656 29 19 57 35 62 35 5 0 136 -84 291 -187 156 -102 387 -255 515 -339
l232 -153 -1 -276 0 -275 -267 0 -266 0 0 -85 0 -85 35 0 c44 -1 1710 0 1768
0 l42 0 0 85 0 85 -570 0 -570 0 0 333 0 332 -480 310 c-697 450 -720 465
-730 465 -5 0 -58 -33 -119 -72 -61 -40 -170 -112 -243 -159 -73 -48 -200
-131 -283 -185 -373 -243 -516 -334 -525 -334 -5 0 -89 53 -187 117 -98 65
-186 122 -196 128 -10 5 -73 46 -140 90 -448 293 -638 415 -645 415 -5 0 -79
-46 -163 -101z"/>
<path d="M905 2817 c-234 -24 -442 -123 -605 -289 -121 -124 -224 -325 -271
-529 -24 -107 -33 -328 -18 -444 48 -358 229 -623 524 -766 44 -22 112 -48
150 -58 61 -17 93 -22 205 -37 14 -2 64 -4 112 -5 86 -2 87 -2 245 65 87 37
172 74 189 81 16 8 84 37 150 65 65 28 122 55 126 59 9 8 -61 223 -70 217 -8
-4 -411 -137 -427 -140 -5 -1 -27 -8 -49 -15 -69 -24 -232 1 -331 51 -22 11
-63 39 -90 61 -180 146 -266 367 -266 677 1 239 66 469 176 616 40 54 112 123
129 125 91 11 340 -35 431 -78 30 -14 32 -20 49 -111 19 -105 44 -235 51 -267
4 -19 12 -20 137 -20 73 1 138 4 145 8 27 17 71 307 69 457 l-1 94 -67 42
c-66 40 -201 99 -249 107 -13 3 -42 10 -64 15 -92 24 -254 32 -380 19z"/>
<path d="M5937 2825 c-1 -2 -29 -5 -62 -8 -377 -36 -696 -306 -814 -692 -54
-174 -69 -433 -36 -615 3 -14 7 -41 10 -60 10 -56 52 -175 89 -248 129 -254
371 -441 646 -501 225 -49 485 -25 675 63 296 137 494 419 544 776 9 66 8 347
-2 387 -3 11 -9 43 -13 70 -9 68 -57 210 -95 285 -50 100 -107 177 -194 264
-185 185 -390 270 -678 278 -37 2 -68 2 -70 1z m161 -294 c102 -31 209 -129
284 -261 122 -214 156 -591 82 -900 -43 -175 -151 -363 -227 -395 -68 -28
-210 -34 -294 -14 -224 55 -383 283 -430 619 -10 73 -10 359 0 434 24 173 97
367 172 453 41 48 97 70 200 80 33 3 61 6 62 7 5 5 119 -13 151 -23z"/>
<path d="M2251 2750 c-7 -16 -8 -137 0 -144 2 -2 29 -7 59 -10 30 -4 71 -9 90
-12 19 -3 43 -6 52 -8 10 -1 20 -5 24 -8 4 -5 8 -1311 4 -1591 0 -11 -12 -22
-32 -29 -18 -6 -77 -34 -131 -60 l-97 -49 6 -42 c4 -23 10 -46 15 -52 5 -6
182 -10 496 -10 l488 0 5 69 c3 39 1 75 -5 82 -5 7 -30 15 -55 18 -25 3 -84
11 -132 17 l-88 12 0 338 0 339 415 0 415 0 0 -324 0 -324 -32 -12 c-74 -29
-220 -104 -225 -116 -2 -7 -1 -32 4 -55 l9 -43 479 -1 c264 0 488 1 497 3 13
3 17 19 20 78 3 83 7 79 -77 89 -27 3 -86 11 -129 18 l-79 13 1 784 c0 432 1
793 1 803 1 10 9 20 19 24 9 3 68 30 130 60 113 55 113 55 107 85 -4 17 -8 36
-9 42 -1 6 -4 16 -8 21 -4 6 -170 9 -470 9 -254 -1 -465 -2 -468 -3 -3 -1 -6
-35 -8 -76 -3 -86 -10 -81 148 -100 25 -3 55 -8 68 -11 l22 -4 0 -348 0 -347
-412 0 -413 1 -2 329 -3 330 130 63 c72 35 130 67 130 70 0 4 -6 27 -13 52
l-12 45 -463 0 c-403 0 -465 -2 -471 -15z"/>
</g>
</svg>
