<?xml version="1.0" encoding="UTF-8" standalone="no"?>
<!-- Created with Inkscape (http://www.inkscape.org/) -->

<svg
   id="id"
   version="1.1"
   viewBox="0 0 368 368"
   xml:space="preserve"
   sodipodi:docname="iconSquareText.svg"
   inkscape:version="1.3 (0e150ed6c4, 2023-07-21)"
   xmlns:inkscape="http://www.inkscape.org/namespaces/inkscape"
   xmlns:sodipodi="http://sodipodi.sourceforge.net/DTD/sodipodi-0.dtd"
   xmlns="http://www.w3.org/2000/svg"
   xmlns:svg="http://www.w3.org/2000/svg"><defs
     id="defs2" /><sodipodi:namedview
     id="namedview2"
     pagecolor="#ffffff"
     bordercolor="#000000"
     borderopacity="0.25"
     inkscape:showpageshadow="2"
     inkscape:pageopacity="0.0"
     inkscape:pagecheckerboard="0"
     inkscape:deskcolor="#d1d1d1"
     inkscape:zoom="1.169837"
     inkscape:cx="170.10918"
     inkscape:cy="154.29501"
     inkscape:window-width="1920"
     inkscape:window-height="1057"
     inkscape:window-x="1592"
     inkscape:window-y="-8"
     inkscape:window-maximized="1"
     inkscape:current-layer="g2" /><g
     transform="translate(-173.98,-200.29604)"
     id="g2"><path
       d="m 174,333.5 h 97 v 9 h -30.083 l 0.0834,28 h 112 v -103 l -57.5,-37 -53.5,35 v 30 h 29 v 9 h -97 v -9 h 59 v -35 l 62.5,-41 61.5,40 61.5,-40 63.5,41 v 35 h 60 v 9 h -97 v -9 h 28 v -29 l -54.5,-36 -57.5,37 v 103 h 112 v -28 h -28 l -1,-9 h 98 v 9 h -60 v 37 h -250 l -0.0481,-37 h -57.952 z"
       fill="#e60020"
       id="path1" /><text
       transform="scale(0.99970008,1.0003)"
       x="356.65045"
       y="462.51685"
       fill="#231f20"
       font-family="Eczar"
       font-size="96.468px"
       font-weight="600"
       letter-spacing="20.014px"
       stroke-width="8.0391"
       text-align="center"
       text-anchor="middle"
       xml:space="preserve"
       id="text2"
       inkscape:label="first"><tspan
         x="356.65045"
         y="462.51685"
         text-align="center"
         id="tspan1">KITTY</tspan><tspan
         x="366.65741"
         y="597.48077"
         text-align="center"
         id="tspan2" /></text><text
       transform="scale(0.99970008,1.0003)"
       x="358.23206"
       y="546.99805"
       fill="#231f20"
       font-family="Eczar"
       font-size="96.468px"
       font-weight="600"
       letter-spacing="20.014px"
       stroke-width="8.0391"
       text-align="center"
       text-anchor="middle"
       xml:space="preserve"
       id="text4"
       inkscape:label="last">CHO</text></g></svg>
